<svg width="524" height="412" viewBox="0 0 524 412" fill="none" xmlns="http://www.w3.org/2000/svg">
<g clip-path="url(#clip0_0_1)">
<path opacity="0.08" d="M121.16 255.475C219.432 298.858 361.042 259.243 448.527 206.609C532.494 156.092 573.327 24.9151 421.791 3.44288C358.694 -5.49757 330 3.82638 283.532 21.5821C246.018 35.9169 194.472 29.1317 157.192 16.2823C104.478 -1.88624 39.513 24.5396 11.7 64.3908C-22.373 113.228 19.112 210.424 121.16 255.475Z" fill="white"/>
<path opacity="0.1" d="M99.2632 255.475C174.907 298.858 283.91 259.243 351.251 206.609C415.884 156.092 447.314 24.9151 330.671 3.4429C282.103 -5.49754 260.016 3.8264 224.247 21.5821C195.371 35.9169 155.694 29.1317 126.998 16.2823C86.4224 -1.88621 36.4162 24.5396 15.0074 64.3908C-11.22 113.228 20.7127 210.424 99.2632 255.475Z" fill="#4E0A2F"/>
<path d="M139.5 77.5C139.5 77.5 147.862 116.5 144.5 131C136.5 165.5 102.193 179.261 123.088 199.038C143.983 218.815 248.903 241.987 259 196.5C267.5 158.206 267.939 150.088 263.5 118.5C261.492 104.206 265.642 55.3354 265.642 55.3354" fill="#8F562D"/>
<path d="M139.5 77.5C139.5 77.5 147.862 116.5 144.5 131C136.5 165.5 102.193 179.261 123.088 199.038C143.983 218.815 248.903 241.987 259 196.5C267.5 158.206 267.939 150.088 263.5 118.5C261.492 104.206 265.642 55.3354 265.642 55.3354" fill="#8F562D"/>
<path d="M253 167.063C252.779 167.033 250.329 209.471 203.101 205.771C170.406 203.215 158.749 167 158 167C161.525 166.218 167.461 165.081 169.026 164.209C174.175 161.321 180.542 158.316 182.205 147.879C183.164 141.868 181.533 111.089 182.038 105L232.228 116.695C231.527 129.548 226.619 159.348 243.821 164.622C246.679 165.494 249.763 166.296 253 167.063Z" fill="#F4DBB5"/>
<path opacity="0.5" d="M233.219 153.656C232.4 151.016 231.873 148.295 231.646 145.54C231.072 139.254 231.186 132.923 231.988 126.662C221.361 125.227 211.349 120.84 203.09 114C202.119 117.586 196.778 133.256 198.257 136.664C201.048 143.106 214.181 153.656 233.219 153.656Z" fill="#0C0C0C"/>
<path d="M225.181 139.151C204.563 141.151 177.887 132.899 172.361 105.443L167.375 80.6694C161.849 53.2134 171.79 28.0524 197.641 22.8494C223.493 17.6494 247.295 36.0154 252.821 63.4714L255.029 74.4424C257.149 84.9744 261.966 135.592 225.181 139.151Z" fill="#F4DBB5"/>
<path d="M215.196 77.6297C212.564 77.1072 209.841 77.2998 207.308 78.1877C206.057 78.6188 204.877 79.2353 203.808 80.0167C202.744 80.788 201.781 81.6901 200.942 82.7017C200.854 82.8018 200.808 82.9327 200.815 83.0663C200.822 83.1998 200.882 83.3251 200.98 83.4152C201.079 83.5053 201.209 83.5529 201.343 83.5478C201.477 83.5426 201.603 83.4851 201.694 83.3877L201.721 83.3597C202.531 82.4482 203.451 81.6418 204.461 80.9597C205.461 80.2778 206.558 79.7508 207.715 79.3967C210.012 78.6762 212.459 78.5764 214.807 79.1077L214.865 79.1217C215.062 79.1694 215.27 79.137 215.443 79.0315C215.616 78.926 215.74 78.7561 215.788 78.5592C215.836 78.3623 215.803 78.1545 215.698 77.9815C215.592 77.8085 215.422 77.6844 215.225 77.6367L215.196 77.6297Z" fill="#0C0C0C"/>
<path d="M236.49 73.4609C238.553 71.7452 241.039 70.6141 243.688 70.1854C244.993 69.9667 246.324 69.9452 247.636 70.1216C248.939 70.2913 250.216 70.6242 251.436 71.1126C251.562 71.1582 251.665 71.2515 251.722 71.3722C251.78 71.4929 251.787 71.6314 251.744 71.7577C251.7 71.884 251.608 71.9881 251.488 72.0473C251.368 72.1066 251.23 72.1163 251.103 72.0744L251.066 72.0627C249.92 71.6481 248.726 71.3791 247.513 71.2619C246.309 71.14 245.093 71.2007 243.907 71.442C241.545 71.9055 239.347 72.9861 237.538 74.5739L237.493 74.6139C237.343 74.7498 237.145 74.8205 236.943 74.8104C236.74 74.8003 236.55 74.7103 236.414 74.56C236.278 74.4098 236.208 74.2117 236.218 74.0093C236.228 73.8069 236.318 73.6169 236.468 73.4809L236.49 73.4609Z" fill="#0C0C0C"/>
<g opacity="0.1" filter="url(#filter0_f_0_1)">
<path d="M208.929 107.44C214.088 106.825 217.913 103.343 217.474 99.663C217.035 95.9831 212.498 93.4989 207.34 94.1143C202.181 94.7298 198.356 98.2118 198.795 101.892C199.234 105.572 203.771 108.056 208.929 107.44Z" fill="#DE2D2D"/>
</g>
<path opacity="0.5" d="M232.935 100.904L232.985 100.896C234.033 100.678 235.068 100.402 236.085 100.069C237.603 99.5614 239.585 98.7274 239.313 97.3544C238.999 95.7894 231.313 79.7724 230.441 77.9544C230.405 77.8732 230.353 77.8001 230.288 77.7394C230.223 77.6788 230.146 77.6318 230.062 77.6012C229.979 77.5706 229.89 77.5571 229.801 77.5615C229.712 77.5658 229.625 77.5879 229.545 77.6264C229.465 77.665 229.393 77.7192 229.334 77.7859C229.275 77.8526 229.23 77.9305 229.202 78.0148C229.174 78.0992 229.163 78.1884 229.17 78.2771C229.176 78.3658 229.201 78.4523 229.241 78.5314C232.518 85.3524 237.796 96.5664 238.008 97.6204C237.842 98.1114 235.324 99.0704 232.725 99.5944C232.551 99.6225 232.395 99.7186 232.292 99.8616C232.189 100.005 232.147 100.183 232.175 100.357C232.203 100.531 232.299 100.687 232.442 100.79C232.585 100.893 232.763 100.935 232.937 100.907L232.935 100.904Z" fill="#0C0C0C"/>
<path d="M146.748 89.5624L169.924 85.0354C187.431 77.7144 213 20.5 213 20.5C213 20.5 226 18 265.642 55.3364C265.642 55.3364 254.425 -16.7486 178.177 5.13639C153.592 12.1914 136.177 37.2504 138.767 70.4434C140.582 93.7004 146.748 89.5624 146.748 89.5624Z" fill="#8F562D"/>
<path d="M175.65 113.485C167.794 115.066 159.734 107.943 158.15 100.085C156.566 92.2274 162.066 86.6144 169.922 85.0334L175.03 89.4824L182.403 112.123L175.65 113.485Z" fill="#F4DBB5"/>
<path d="M215.833 66.898C211.621 65.8875 207.261 66.2601 203.208 67.977C201.205 68.8105 199.317 70.0027 197.606 71.5137C195.903 73.0051 194.362 74.7494 193.019 76.7056C192.877 76.8991 192.804 77.1523 192.816 77.4105C192.827 77.6687 192.922 77.9111 193.08 78.0853C193.238 78.2595 193.447 78.3516 193.66 78.3417C193.874 78.3317 194.076 78.2205 194.223 78.0321L194.266 77.978C195.561 76.2153 197.035 74.6562 198.651 73.3371C200.252 72.0184 202.007 70.9995 203.86 70.3148C207.536 68.9215 211.452 68.7286 215.211 69.7559L215.303 69.783C215.619 69.8753 215.951 69.8126 216.228 69.6086C216.505 69.4046 216.704 69.0761 216.78 68.6953C216.856 68.3145 216.804 67.9127 216.636 67.5781C216.467 67.2436 216.195 67.0038 215.88 66.9115L215.833 66.898Z" fill="#77441F"/>
<path d="M232.941 64.4122C236.218 61.5792 240.262 59.907 244.65 59.5698C246.813 59.3897 249.038 59.581 251.251 60.1372C253.449 60.6793 255.619 61.5205 257.711 62.641C257.926 62.7478 258.107 62.9391 258.215 63.1736C258.324 63.4081 258.351 63.6671 258.291 63.8945C258.23 64.1218 258.087 64.2994 257.893 64.3888C257.698 64.4782 257.468 64.4723 257.251 64.3723L257.188 64.344C255.228 63.3736 253.203 62.6657 251.16 62.237C249.133 61.801 247.106 61.7027 245.146 61.9455C241.24 62.3972 237.673 64.0254 234.807 66.6645L234.737 66.7312C234.5 66.958 234.175 67.0552 233.836 67.0012C233.496 66.9473 233.169 66.7467 232.926 66.4435C232.683 66.1404 232.545 65.7597 232.541 65.3849C232.537 65.0102 232.669 64.6723 232.906 64.4455L232.941 64.4122Z" fill="#77441F"/>
<path d="M219.5 200.5C202.402 203.877 170.836 163.235 170.836 163.235C170.836 163.235 155.247 162.705 145.185 163.236C128.712 164.106 130.874 163.348 122.225 166.722C114.18 169.86 104.111 169.505 103 196.683C106.753 212.379 103 249 103 249H287.363C287.363 249 298.418 203.749 299.96 196.683C302.9 183.195 300.269 175.064 283.434 168.116C271.225 163.077 254.383 163.235 241.696 163.236C241.49 163.236 244.903 197.014 219.5 200.5Z" fill="#2F4627"/>
<g opacity="0.1" filter="url(#filter1_f_0_1)">
<path d="M250.981 98.7922C254.51 98.3711 257.016 95.0465 256.577 91.3666C256.138 87.6868 252.92 85.045 249.391 85.4661C245.861 85.8873 243.356 89.2118 243.795 92.8917C244.234 96.5716 247.451 99.2133 250.981 98.7922Z" fill="#DE2D2D"/>
</g>
<path d="M215.011 20.9102C210.506 12.2723 200.716 8.42796 193.294 6.72468C188.343 5.60479 183.176 5.04594 178.125 5.08395L178.22 5.34595C183.205 5.30975 188.304 5.86256 193.19 6.96897C200.491 8.64748 210.123 12.4348 214.561 20.9482L215.011 20.9102Z" fill="#78441E"/>
<path d="M191.138 92.0119C204.318 83.0098 210.011 64.6979 212.465 50.9169C214.077 41.7239 214.822 32.183 214.652 22.9055L214.251 23.1017C214.417 32.2586 213.68 41.6746 212.087 50.7463C209.669 64.3014 204.06 82.3199 191.07 91.1881L191.138 92.0119Z" fill="#8F562D"/>
<ellipse cx="172" cy="114" rx="2" ry="6" fill="#C8CD94"/>
<path d="M203.467 81.6569C202.728 81.5323 202.135 81.2381 201.75 80.805C201.558 80.5927 201.426 80.3452 201.359 80.0709C201.291 79.7992 201.277 79.5074 201.317 79.2024C201.32 79.1717 201.34 79.138 201.373 79.1086C201.406 79.0792 201.45 79.0564 201.494 79.0452C201.538 79.034 201.58 79.0353 201.61 79.0488C201.64 79.0622 201.656 79.0868 201.655 79.1172L201.654 79.1259C201.63 79.4057 201.657 79.672 201.733 79.9187C201.807 80.1643 201.941 80.3839 202.129 80.5702C202.498 80.944 203.048 81.1917 203.723 81.2883L203.74 81.2905C203.797 81.2978 203.838 81.3243 203.854 81.364C203.87 81.4036 203.859 81.4533 203.824 81.5021C203.789 81.5508 203.733 81.5946 203.667 81.6239C203.602 81.6531 203.533 81.6654 203.476 81.658L203.467 81.6569Z" fill="#0C0C0C"/>
<path d="M201.438 82.8789C200.698 82.7542 200.105 82.46 199.72 82.027C199.528 81.8146 199.396 81.5672 199.329 81.2928C199.261 81.0212 199.247 80.7294 199.288 80.4243C199.291 80.3936 199.311 80.36 199.344 80.3305C199.377 80.3011 199.42 80.2784 199.464 80.2672C199.509 80.256 199.55 80.2572 199.58 80.2707C199.61 80.2842 199.626 80.3087 199.625 80.3391L199.625 80.3479C199.601 80.6277 199.627 80.894 199.704 81.1406C199.778 81.3862 199.911 81.6059 200.099 81.7922C200.468 82.1659 201.018 82.4137 201.693 82.5102L201.71 82.5124C201.768 82.5198 201.809 82.5462 201.824 82.5859C201.84 82.6256 201.829 82.6753 201.794 82.724C201.759 82.7728 201.703 82.8166 201.638 82.8458C201.572 82.8751 201.503 82.8873 201.446 82.88L201.438 82.8789Z" fill="#0C0C0C"/>
<path d="M202.333 82.2301C201.593 82.1055 201 81.8113 200.615 81.3782C200.423 81.1659 200.292 80.9184 200.225 80.6441C200.156 80.3725 200.142 80.0807 200.183 79.7756C200.186 79.7449 200.206 79.7112 200.239 79.6818C200.272 79.6524 200.315 79.6296 200.359 79.6184C200.404 79.6072 200.445 79.6085 200.476 79.622C200.506 79.6354 200.522 79.66 200.52 79.6904L200.52 79.6992C200.496 79.9789 200.522 80.2453 200.599 80.4919C200.673 80.7375 200.806 80.9572 200.995 81.1434C201.364 81.5172 201.914 81.7649 202.589 81.8615L202.606 81.8637C202.663 81.8711 202.704 81.8975 202.72 81.9372C202.736 81.9769 202.725 82.0265 202.69 82.0753C202.655 82.124 202.598 82.1678 202.533 82.1971C202.468 82.2263 202.399 82.2386 202.341 82.2312L202.333 82.2301Z" fill="#0C0C0C"/>
<path d="M203.467 81.6569C202.728 81.5323 202.135 81.2381 201.75 80.805C201.558 80.5927 201.426 80.3452 201.359 80.0709C201.291 79.7992 201.277 79.5074 201.317 79.2024C201.32 79.1717 201.34 79.138 201.373 79.1086C201.406 79.0792 201.45 79.0564 201.494 79.0452C201.538 79.034 201.58 79.0353 201.61 79.0488C201.64 79.0622 201.656 79.0868 201.655 79.1172L201.654 79.1259C201.63 79.4057 201.657 79.672 201.733 79.9187C201.807 80.1643 201.941 80.3839 202.129 80.5702C202.498 80.944 203.048 81.1917 203.723 81.2883L203.74 81.2905C203.797 81.2978 203.838 81.3243 203.854 81.364C203.87 81.4036 203.859 81.4533 203.824 81.5021C203.789 81.5508 203.733 81.5946 203.667 81.6239C203.602 81.6531 203.533 81.6654 203.476 81.658L203.467 81.6569Z" fill="#0C0C0C"/>
<path d="M248.919 71.2326C249.544 70.8183 249.967 70.3086 250.142 69.7564C250.232 69.4844 250.252 69.2047 250.201 68.9268C250.153 68.6508 250.048 68.3786 249.886 68.1164C249.871 68.0895 249.839 68.0668 249.797 68.0533C249.755 68.0399 249.706 68.0367 249.661 68.0444C249.616 68.0522 249.579 68.0703 249.557 68.0948C249.535 68.1194 249.53 68.1483 249.544 68.1755L249.547 68.1835C249.683 68.4292 249.767 68.6833 249.797 68.9398C249.829 69.1944 249.797 69.4493 249.701 69.6959C249.515 70.1874 249.113 70.6372 248.536 70.9997L248.521 71.0085C248.472 71.0386 248.445 71.0794 248.447 71.1221C248.448 71.1648 248.478 71.2058 248.53 71.2361C248.582 71.2664 248.651 71.2835 248.723 71.2837C248.794 71.2839 248.862 71.2671 248.912 71.237L248.919 71.2326Z" fill="#0C0C0C"/>
<path d="M251.27 71.5246C251.895 71.1103 252.317 70.6006 252.493 70.0484C252.583 69.7764 252.602 69.4967 252.552 69.2188C252.504 68.9428 252.399 68.6706 252.237 68.4084C252.222 68.3815 252.19 68.3588 252.148 68.3453C252.106 68.3319 252.057 68.3287 252.012 68.3364C251.967 68.3442 251.93 68.3623 251.908 68.3868C251.886 68.4114 251.881 68.4403 251.894 68.4675L251.898 68.4755C252.034 68.7212 252.118 68.9753 252.148 69.2318C252.18 69.4864 252.148 69.7413 252.052 69.9879C251.866 70.4794 251.464 70.9292 250.887 71.2917L250.872 71.3005C250.823 71.3306 250.796 71.3714 250.798 71.4141C250.799 71.4568 250.829 71.4978 250.881 71.5281C250.933 71.5584 251.002 71.5755 251.074 71.5757C251.145 71.5759 251.213 71.5591 251.263 71.529L251.27 71.5246Z" fill="#0C0C0C"/>
<path d="M250.188 71.2955C250.813 70.8812 251.236 70.3715 251.412 69.8194C251.501 69.5473 251.521 69.2677 251.471 68.9898C251.423 68.7138 251.317 68.4415 251.156 68.1793C251.141 68.1524 251.109 68.1297 251.067 68.1163C251.025 68.1028 250.976 68.0996 250.931 68.1074C250.886 68.1151 250.848 68.1332 250.826 68.1578C250.804 68.1823 250.799 68.2113 250.813 68.2385L250.817 68.2464C250.953 68.4922 251.037 68.7463 251.067 69.0027C251.099 69.2573 251.066 69.5122 250.97 69.7589C250.784 70.2504 250.383 70.7002 249.805 71.0626L249.791 71.0715C249.741 71.1015 249.714 71.1423 249.716 71.185C249.718 71.2277 249.748 71.2687 249.8 71.299C249.851 71.3293 249.921 71.3464 249.992 71.3466C250.064 71.3468 250.132 71.33 250.181 71.3L250.188 71.2955Z" fill="#0C0C0C"/>
<path d="M248.919 71.2326C249.544 70.8183 249.967 70.3086 250.142 69.7564C250.232 69.4844 250.252 69.2047 250.201 68.9268C250.153 68.6508 250.048 68.3786 249.886 68.1164C249.871 68.0895 249.839 68.0668 249.797 68.0533C249.755 68.0399 249.706 68.0367 249.661 68.0444C249.616 68.0522 249.579 68.0703 249.557 68.0948C249.535 68.1194 249.53 68.1483 249.544 68.1755L249.547 68.1835C249.683 68.4292 249.767 68.6833 249.797 68.9398C249.829 69.1944 249.797 69.4493 249.701 69.6959C249.515 70.1874 249.113 70.6372 248.536 70.9997L248.521 71.0085C248.472 71.0386 248.445 71.0794 248.447 71.1221C248.448 71.1648 248.478 71.2058 248.53 71.2361C248.582 71.2664 248.651 71.2835 248.723 71.2837C248.794 71.2839 248.862 71.2671 248.912 71.237L248.919 71.2326Z" fill="#0C0C0C"/>
<path d="M240.103 105.995C233.404 109.4 225.761 110.477 218.382 109.056C218.127 109.007 217.863 109.033 217.621 109.129C217.38 109.225 217.171 109.389 217.019 109.599C216.866 109.81 216.777 110.06 216.762 110.319C216.746 110.579 216.805 110.837 216.931 111.064C219.131 114.941 224.349 121.565 233.301 118.865C239.081 117.121 241.266 111.173 242.076 107.495C242.131 107.241 242.113 106.976 242.023 106.732C241.933 106.488 241.775 106.274 241.567 106.117C241.36 105.959 241.113 105.864 240.853 105.842C240.594 105.821 240.334 105.873 240.103 105.995Z" fill="white"/>
</g>
<path d="M181.5 95L204.45 65.8784C214.262 52.6775 215.2 21.7992 215.2 21.7992C215.2 21.7992 228.565 54.9763 271.474 80.5678C271.474 80.5678 263.634 -0.0595974 205.638 20.0692C186.938 26.5582 174.338 47.4773 177.4 74.4051C179.546 93.2723 181.5 95 181.5 95Z" fill="#8F562D"/>
<path d="M136.193 154.498C136.193 154.498 139.164 178.249 137.97 187.08C135.127 208.09 122.939 216.471 130.362 228.515C137.786 240.559 175.063 254.671 178.65 226.969C181.67 203.648 188.339 203.011 186.762 183.774C186.049 175.069 181.01 141 181.01 141" fill="#8F562D"/>
<defs>
<filter id="filter0_f_0_1" x="190.761" y="86.0207" width="34.7476" height="29.5132" filterUnits="userSpaceOnUse" color-interpolation-filters="sRGB">
<feFlood flood-opacity="0" result="BackgroundImageFix"/>
<feBlend mode="normal" in="SourceGraphic" in2="BackgroundImageFix" result="shape"/>
<feGaussianBlur stdDeviation="4" result="effect1_foregroundBlur_0_1"/>
</filter>
<filter id="filter1_f_0_1" x="235.745" y="77.422" width="28.8816" height="29.4143" filterUnits="userSpaceOnUse" color-interpolation-filters="sRGB">
<feFlood flood-opacity="0" result="BackgroundImageFix"/>
<feBlend mode="normal" in="SourceGraphic" in2="BackgroundImageFix" result="shape"/>
<feGaussianBlur stdDeviation="4" result="effect1_foregroundBlur_0_1"/>
</filter>
<clipPath id="clip0_0_1">
<rect width="523.55" height="411.531" fill="white"/>
</clipPath>
</defs>
</svg>
