<svg width="518" height="412" viewBox="0 0 518 412" fill="none" xmlns="http://www.w3.org/2000/svg">
<path opacity="0.1" d="M93.2632 255.475C168.907 298.858 277.91 259.243 345.251 206.609C409.884 156.092 441.314 24.9151 324.671 3.4429C276.103 -5.49754 254.016 3.8264 218.247 21.5821C189.371 35.9169 149.694 29.1317 120.998 16.2823C80.4224 -1.88621 30.4162 24.5396 9.00741 64.3908C-17.22 113.228 14.7127 210.424 93.2632 255.475Z" fill="#4E0A2F"/>
<path d="M133.5 77.5C133.5 77.5 141.862 116.5 138.5 131C130.5 165.5 96.1934 179.261 117.088 199.038C137.983 218.815 242.903 241.987 253 196.5C261.5 158.206 261.939 150.088 257.5 118.5C255.492 104.206 259.642 55.3354 259.642 55.3354" fill="#8F562D"/>
<path d="M133.5 77.5C133.5 77.5 141.862 116.5 138.5 131C130.5 165.5 96.1934 179.261 117.088 199.038C137.983 218.815 242.903 241.987 253 196.5C261.5 158.206 261.939 150.088 257.5 118.5C255.492 104.206 259.642 55.3354 259.642 55.3354" fill="#8F562D"/>
<path d="M247 167.063C246.779 167.033 244.329 209.471 197.101 205.771C164.406 203.215 152.749 167 152 167C155.525 166.218 161.461 165.081 163.026 164.209C168.175 161.321 174.542 158.316 176.205 147.879C177.164 141.868 175.533 111.089 176.038 105L226.228 116.695C225.527 129.548 220.619 159.348 237.821 164.622C240.679 165.494 243.763 166.296 247 167.063Z" fill="#F4DBB5"/>
<path opacity="0.5" d="M227.219 153.656C226.4 151.016 225.873 148.295 225.646 145.54C225.072 139.254 225.186 132.923 225.988 126.662C215.361 125.227 205.349 120.84 197.09 114C196.119 117.586 190.778 133.256 192.257 136.664C195.048 143.106 208.181 153.656 227.219 153.656Z" fill="#0C0C0C"/>
<path d="M219.181 139.151C198.563 141.151 171.887 132.899 166.361 105.443L161.375 80.6694C155.849 53.2134 165.79 28.0524 191.641 22.8494C217.493 17.6494 241.295 36.0154 246.821 63.4714L249.029 74.4424C251.149 84.9744 255.966 135.592 219.181 139.151Z" fill="#F4DBB5"/>
<path d="M209.196 77.6297C206.564 77.1072 203.841 77.2998 201.308 78.1877C200.057 78.6188 198.877 79.2353 197.808 80.0167C196.744 80.788 195.781 81.6901 194.942 82.7017C194.854 82.8018 194.808 82.9327 194.815 83.0663C194.822 83.1998 194.882 83.3251 194.98 83.4152C195.079 83.5053 195.209 83.5529 195.343 83.5478C195.477 83.5426 195.603 83.4851 195.694 83.3877L195.721 83.3597C196.531 82.4482 197.451 81.6418 198.461 80.9597C199.461 80.2778 200.558 79.7508 201.715 79.3967C204.012 78.6762 206.459 78.5764 208.807 79.1077L208.865 79.1217C209.062 79.1694 209.27 79.137 209.443 79.0315C209.616 78.926 209.74 78.7561 209.788 78.5592C209.836 78.3623 209.803 78.1545 209.698 77.9815C209.592 77.8085 209.422 77.6844 209.225 77.6367L209.196 77.6297Z" fill="#0C0C0C"/>
<path d="M230.49 73.4609C232.553 71.7452 235.039 70.6141 237.688 70.1854C238.993 69.9667 240.324 69.9452 241.636 70.1216C242.939 70.2913 244.216 70.6242 245.436 71.1126C245.562 71.1582 245.665 71.2515 245.722 71.3722C245.78 71.4929 245.787 71.6314 245.744 71.7577C245.7 71.884 245.608 71.9881 245.488 72.0473C245.368 72.1066 245.23 72.1163 245.103 72.0744L245.066 72.0627C243.92 71.6481 242.726 71.3791 241.513 71.2619C240.309 71.14 239.093 71.2007 237.907 71.442C235.545 71.9055 233.347 72.9861 231.538 74.5739L231.493 74.6139C231.343 74.7498 231.145 74.8205 230.943 74.8104C230.74 74.8003 230.55 74.7103 230.414 74.56C230.278 74.4098 230.208 74.2117 230.218 74.0093C230.228 73.8069 230.318 73.6169 230.468 73.4809L230.49 73.4609Z" fill="#0C0C0C"/>
<g opacity="0.1" filter="url(#filter0_f_0_1)">
<path d="M202.929 107.44C208.088 106.825 211.913 103.343 211.474 99.663C211.035 95.9831 206.498 93.4989 201.34 94.1143C196.181 94.7298 192.356 98.2118 192.795 101.892C193.234 105.572 197.771 108.056 202.929 107.44Z" fill="#DE2D2D"/>
</g>
<path opacity="0.5" d="M226.935 100.904L226.985 100.896C228.033 100.678 229.068 100.402 230.085 100.069C231.603 99.5614 233.585 98.7274 233.313 97.3544C232.999 95.7894 225.313 79.7724 224.441 77.9544C224.405 77.8732 224.353 77.8001 224.288 77.7394C224.223 77.6788 224.146 77.6318 224.062 77.6012C223.979 77.5706 223.89 77.5571 223.801 77.5615C223.712 77.5658 223.625 77.5879 223.545 77.6264C223.465 77.665 223.393 77.7192 223.334 77.7859C223.275 77.8526 223.23 77.9305 223.202 78.0148C223.174 78.0992 223.163 78.1884 223.17 78.2771C223.176 78.3658 223.201 78.4523 223.241 78.5314C226.518 85.3524 231.796 96.5664 232.008 97.6204C231.842 98.1114 229.324 99.0704 226.725 99.5944C226.551 99.6225 226.395 99.7186 226.292 99.8616C226.189 100.005 226.147 100.183 226.175 100.357C226.203 100.531 226.299 100.687 226.442 100.79C226.585 100.893 226.763 100.935 226.937 100.907L226.935 100.904Z" fill="#0C0C0C"/>
<path d="M140.748 89.5624L163.924 85.0354C181.431 77.7144 207 20.5 207 20.5C207 20.5 220 18 259.642 55.3364C259.642 55.3364 248.425 -16.7486 172.177 5.13639C147.592 12.1914 130.177 37.2504 132.767 70.4434C134.582 93.7004 140.748 89.5624 140.748 89.5624Z" fill="#8F562D"/>
<path d="M169.65 113.485C161.794 115.066 153.734 107.943 152.15 100.085C150.566 92.2274 156.066 86.6144 163.922 85.0334L169.03 89.4824L176.403 112.123L169.65 113.485Z" fill="#F4DBB5"/>
<path d="M209.833 66.898C205.621 65.8875 201.261 66.2601 197.208 67.977C195.205 68.8105 193.317 70.0027 191.606 71.5137C189.903 73.0051 188.362 74.7494 187.019 76.7056C186.877 76.8991 186.804 77.1523 186.816 77.4105C186.827 77.6687 186.922 77.9111 187.08 78.0853C187.238 78.2595 187.447 78.3516 187.66 78.3417C187.874 78.3317 188.076 78.2205 188.223 78.0321L188.266 77.978C189.561 76.2153 191.035 74.6562 192.651 73.3371C194.252 72.0184 196.007 70.9995 197.86 70.3148C201.536 68.9215 205.452 68.7286 209.211 69.7559L209.303 69.783C209.619 69.8753 209.951 69.8126 210.228 69.6086C210.505 69.4046 210.704 69.0761 210.78 68.6953C210.856 68.3145 210.804 67.9127 210.636 67.5781C210.467 67.2436 210.195 67.0038 209.88 66.9115L209.833 66.898Z" fill="#77441F"/>
<path d="M226.941 64.4122C230.218 61.5792 234.262 59.907 238.65 59.5698C240.813 59.3897 243.038 59.581 245.251 60.1372C247.449 60.6793 249.619 61.5205 251.711 62.641C251.926 62.7478 252.107 62.9391 252.215 63.1736C252.324 63.4081 252.351 63.6671 252.291 63.8945C252.23 64.1218 252.087 64.2994 251.893 64.3888C251.698 64.4782 251.468 64.4723 251.251 64.3723L251.188 64.344C249.228 63.3736 247.203 62.6657 245.16 62.237C243.133 61.801 241.106 61.7027 239.146 61.9455C235.24 62.3972 231.673 64.0254 228.807 66.6645L228.737 66.7312C228.5 66.958 228.175 67.0552 227.836 67.0012C227.496 66.9473 227.169 66.7467 226.926 66.4435C226.683 66.1404 226.545 65.7597 226.541 65.3849C226.537 65.0102 226.669 64.6723 226.906 64.4455L226.941 64.4122Z" fill="#77441F"/>
<path d="M208.561 200.5C190.426 203.877 156.947 163.235 156.947 163.235C156.947 163.235 140.413 162.705 129.742 163.236C112.27 164.106 114.563 163.348 105.39 166.722C96.8579 169.86 86.1784 169.505 85 196.683C88.9801 212.379 85 249 85 249H280.536C280.536 249 292.262 203.749 293.896 196.683C297.016 183.195 294.225 175.064 276.37 168.116C263.421 163.077 245.557 163.235 232.102 163.236C231.884 163.236 235.503 197.014 208.561 200.5Z" fill="#2F4627"/>
<g opacity="0.1" filter="url(#filter1_f_0_1)">
<path d="M244.981 98.7922C248.51 98.3711 251.016 95.0465 250.577 91.3666C250.138 87.6868 246.92 85.045 243.391 85.4661C239.861 85.8873 237.356 89.2118 237.795 92.8917C238.234 96.5716 241.451 99.2133 244.981 98.7922Z" fill="#DE2D2D"/>
</g>
<path d="M209.011 20.9102C204.506 12.2723 194.716 8.42796 187.294 6.72468C182.343 5.60479 177.176 5.04594 172.125 5.08395L172.22 5.34595C177.205 5.30975 182.304 5.86256 187.19 6.96897C194.491 8.64748 204.123 12.4348 208.561 20.9482L209.011 20.9102Z" fill="#78441E"/>
<path d="M185.138 92.0119C198.318 83.0098 204.011 64.6979 206.465 50.9169C208.077 41.7239 208.822 32.183 208.652 22.9055L208.251 23.1017C208.417 32.2586 207.68 41.6746 206.087 50.7463C203.669 64.3014 198.06 82.3199 185.07 91.1881L185.138 92.0119Z" fill="#8F562D"/>
<ellipse cx="166" cy="114" rx="2" ry="6" fill="#C8CD94"/>
<path d="M197.467 81.6569C196.728 81.5323 196.135 81.2381 195.75 80.805C195.558 80.5927 195.426 80.3452 195.359 80.0709C195.291 79.7992 195.277 79.5074 195.317 79.2024C195.32 79.1717 195.34 79.138 195.373 79.1086C195.406 79.0792 195.45 79.0564 195.494 79.0452C195.538 79.034 195.58 79.0353 195.61 79.0488C195.64 79.0622 195.656 79.0868 195.655 79.1172L195.654 79.1259C195.63 79.4057 195.657 79.672 195.733 79.9187C195.807 80.1643 195.941 80.3839 196.129 80.5702C196.498 80.944 197.048 81.1917 197.723 81.2883L197.74 81.2905C197.797 81.2978 197.838 81.3243 197.854 81.364C197.87 81.4036 197.859 81.4533 197.824 81.5021C197.789 81.5508 197.733 81.5946 197.667 81.6239C197.602 81.6531 197.533 81.6654 197.476 81.658L197.467 81.6569Z" fill="#0C0C0C"/>
<path d="M195.438 82.8789C194.698 82.7542 194.105 82.46 193.72 82.027C193.528 81.8146 193.396 81.5672 193.329 81.2928C193.261 81.0212 193.247 80.7294 193.288 80.4243C193.291 80.3936 193.311 80.36 193.344 80.3305C193.377 80.3011 193.42 80.2784 193.464 80.2672C193.509 80.256 193.55 80.2572 193.58 80.2707C193.61 80.2842 193.626 80.3087 193.625 80.3391L193.625 80.3479C193.601 80.6277 193.627 80.894 193.704 81.1406C193.778 81.3862 193.911 81.6059 194.099 81.7922C194.468 82.1659 195.018 82.4137 195.693 82.5102L195.71 82.5124C195.768 82.5198 195.809 82.5462 195.824 82.5859C195.84 82.6256 195.829 82.6753 195.794 82.724C195.759 82.7728 195.703 82.8166 195.638 82.8458C195.572 82.8751 195.503 82.8873 195.446 82.88L195.438 82.8789Z" fill="#0C0C0C"/>
<path d="M196.333 82.2301C195.593 82.1055 195 81.8113 194.615 81.3782C194.423 81.1659 194.292 80.9184 194.225 80.6441C194.156 80.3725 194.142 80.0807 194.183 79.7756C194.186 79.7449 194.206 79.7112 194.239 79.6818C194.272 79.6524 194.315 79.6296 194.359 79.6184C194.404 79.6072 194.445 79.6085 194.476 79.622C194.506 79.6354 194.522 79.66 194.52 79.6904L194.52 79.6992C194.496 79.9789 194.522 80.2453 194.599 80.4919C194.673 80.7375 194.806 80.9572 194.995 81.1434C195.364 81.5172 195.914 81.7649 196.589 81.8615L196.606 81.8637C196.663 81.8711 196.704 81.8975 196.72 81.9372C196.736 81.9769 196.725 82.0265 196.69 82.0753C196.655 82.124 196.598 82.1678 196.533 82.1971C196.468 82.2263 196.399 82.2386 196.341 82.2312L196.333 82.2301Z" fill="#0C0C0C"/>
<path d="M242.919 71.2326C243.544 70.8183 243.967 70.3086 244.142 69.7564C244.232 69.4844 244.252 69.2047 244.201 68.9268C244.153 68.6508 244.048 68.3786 243.886 68.1164C243.871 68.0895 243.839 68.0668 243.797 68.0533C243.755 68.0399 243.706 68.0367 243.661 68.0444C243.616 68.0522 243.579 68.0703 243.557 68.0948C243.535 68.1194 243.53 68.1483 243.544 68.1755L243.547 68.1835C243.683 68.4292 243.767 68.6833 243.797 68.9398C243.829 69.1944 243.797 69.4493 243.701 69.6959C243.515 70.1874 243.113 70.6372 242.536 70.9997L242.521 71.0085C242.472 71.0386 242.445 71.0794 242.447 71.1221C242.448 71.1648 242.478 71.2058 242.53 71.2361C242.582 71.2664 242.651 71.2835 242.723 71.2837C242.794 71.2839 242.862 71.2671 242.912 71.237L242.919 71.2326Z" fill="#0C0C0C"/>
<path d="M245.27 71.5246C245.895 71.1103 246.317 70.6006 246.493 70.0484C246.583 69.7764 246.602 69.4967 246.552 69.2188C246.504 68.9428 246.399 68.6706 246.237 68.4084C246.222 68.3815 246.19 68.3588 246.148 68.3453C246.106 68.3319 246.057 68.3287 246.012 68.3364C245.967 68.3442 245.93 68.3623 245.908 68.3868C245.886 68.4114 245.881 68.4403 245.894 68.4675L245.898 68.4755C246.034 68.7212 246.118 68.9753 246.148 69.2318C246.18 69.4864 246.148 69.7413 246.052 69.9879C245.866 70.4794 245.464 70.9292 244.887 71.2917L244.872 71.3005C244.823 71.3306 244.796 71.3714 244.798 71.4141C244.799 71.4568 244.829 71.4978 244.881 71.5281C244.933 71.5584 245.002 71.5755 245.074 71.5757C245.145 71.5759 245.213 71.5591 245.263 71.529L245.27 71.5246Z" fill="#0C0C0C"/>
<path d="M244.188 71.2955C244.813 70.8812 245.236 70.3715 245.412 69.8194C245.501 69.5473 245.521 69.2677 245.471 68.9898C245.423 68.7138 245.317 68.4415 245.156 68.1793C245.141 68.1524 245.109 68.1297 245.067 68.1163C245.025 68.1028 244.976 68.0996 244.931 68.1074C244.886 68.1151 244.848 68.1332 244.826 68.1578C244.804 68.1823 244.799 68.2113 244.813 68.2385L244.817 68.2464C244.953 68.4922 245.037 68.7463 245.067 69.0027C245.099 69.2573 245.066 69.5122 244.97 69.7589C244.784 70.2504 244.383 70.7002 243.805 71.0626L243.791 71.0715C243.741 71.1015 243.714 71.1423 243.716 71.185C243.718 71.2277 243.748 71.2687 243.8 71.299C243.851 71.3293 243.921 71.3464 243.992 71.3466C244.064 71.3468 244.132 71.33 244.181 71.3L244.188 71.2955Z" fill="#0C0C0C"/>
<path d="M242.919 71.2326C243.544 70.8183 243.967 70.3086 244.142 69.7564C244.232 69.4844 244.252 69.2047 244.201 68.9268C244.153 68.6508 244.048 68.3786 243.886 68.1164C243.871 68.0895 243.839 68.0668 243.797 68.0533C243.755 68.0399 243.706 68.0367 243.661 68.0444C243.616 68.0522 243.579 68.0703 243.557 68.0948C243.535 68.1194 243.53 68.1483 243.544 68.1755L243.547 68.1835C243.683 68.4292 243.767 68.6833 243.797 68.9398C243.829 69.1944 243.797 69.4493 243.701 69.6959C243.515 70.1874 243.113 70.6372 242.536 70.9997L242.521 71.0085C242.472 71.0386 242.445 71.0794 242.447 71.1221C242.448 71.1648 242.478 71.2058 242.53 71.2361C242.582 71.2664 242.651 71.2835 242.723 71.2837C242.794 71.2839 242.862 71.2671 242.912 71.237L242.919 71.2326Z" fill="#0C0C0C"/>
<path d="M234.103 105.995C227.404 109.4 219.761 110.477 212.382 109.056C212.127 109.007 211.863 109.033 211.621 109.129C211.38 109.225 211.171 109.389 211.019 109.599C210.866 109.81 210.777 110.06 210.762 110.319C210.746 110.579 210.805 110.837 210.931 111.064C213.131 114.941 218.349 121.565 227.301 118.865C233.081 117.121 235.266 111.173 236.076 107.495C236.131 107.241 236.113 106.976 236.023 106.732C235.933 106.488 235.775 106.274 235.567 106.117C235.36 105.959 235.113 105.864 234.853 105.842C234.594 105.821 234.334 105.873 234.103 105.995Z" fill="white"/>
<path d="M221.378 239.583L259.902 121.159C260.579 119.078 261.897 117.265 263.668 115.979C265.438 114.693 267.571 114 269.759 114H436.711C438.347 114 439.96 114.387 441.418 115.13C442.876 115.873 444.137 116.95 445.098 118.274C446.06 119.598 446.694 121.131 446.95 122.747C447.205 124.363 447.074 126.016 446.568 127.572L398.044 246C397.367 248.081 396.049 249.894 394.278 251.18C392.508 252.466 390.375 253.159 388.187 253.159H231.235C229.598 253.159 227.985 252.772 226.527 252.029C225.069 251.286 223.807 250.208 222.846 248.884C221.884 247.559 221.25 246.026 220.995 244.41C220.74 242.793 220.871 241.139 221.378 239.583Z" fill="#292A2E"/>
<path d="M221.378 239.583L259.902 121.159C260.579 119.078 261.897 117.265 263.668 115.979C265.438 114.693 267.571 114 269.759 114H436.711C438.347 114 439.96 114.387 441.418 115.13C442.876 115.873 444.137 116.95 445.098 118.274C446.06 119.598 446.694 121.131 446.95 122.747C447.205 124.363 447.074 126.016 446.568 127.572L398.044 246C397.367 248.081 396.049 249.894 394.278 251.18C392.508 252.466 390.375 253.159 388.187 253.159H231.235C229.598 253.159 227.985 252.772 226.527 252.029C225.069 251.286 223.807 250.208 222.846 248.884C221.884 247.559 221.25 246.026 220.995 244.41C220.74 242.793 220.871 241.139 221.378 239.583Z" fill="#292A2E"/>
<path d="M252.804 243.552H147.74C145.122 243.552 143 245.674 143 248.292V248.414C143 251.032 145.122 253.154 147.74 253.154H252.804C255.422 253.154 257.544 251.032 257.544 248.414V248.292C257.544 245.674 255.422 243.552 252.804 243.552Z" fill="#292A2E"/>
<path d="M252.804 243.552H147.74C145.122 243.552 143 245.674 143 248.292V248.414C143 251.032 145.122 253.154 147.74 253.154H252.804C255.422 253.154 257.544 251.032 257.544 248.414V248.292C257.544 245.674 255.422 243.552 252.804 243.552Z" fill="#292A2E"/>
<path d="M328.973 205.816C338.064 205.816 345.434 198.446 345.434 189.355C345.434 180.264 338.064 172.894 328.973 172.894C319.882 172.894 312.512 180.264 312.512 189.355C312.512 198.446 319.882 205.816 328.973 205.816Z" fill="white"/>
<path d="M175.5 95L198.45 65.8784C208.262 52.6775 209.2 21.7992 209.2 21.7992C209.2 21.7992 222.565 54.9763 265.474 80.5678C265.474 80.5678 257.634 -0.0595974 199.638 20.0692C180.938 26.5582 168.338 47.4773 171.4 74.4051C173.546 93.2723 175.5 95 175.5 95Z" fill="#8F562D"/>
<path d="M130.193 154.498C130.193 154.498 133.164 178.249 131.97 187.08C129.127 208.09 116.939 216.471 124.362 228.515C131.786 240.559 169.063 254.671 172.65 226.969C175.67 203.648 182.339 203.011 180.762 183.774C180.049 175.069 175.01 141 175.01 141" fill="#8F562D"/>
<defs>
<filter id="filter0_f_0_1" x="184.761" y="86.0207" width="34.7476" height="29.5132" filterUnits="userSpaceOnUse" color-interpolation-filters="sRGB">
<feFlood flood-opacity="0" result="BackgroundImageFix"/>
<feBlend mode="normal" in="SourceGraphic" in2="BackgroundImageFix" result="shape"/>
<feGaussianBlur stdDeviation="4" result="effect1_foregroundBlur_0_1"/>
</filter>
<filter id="filter1_f_0_1" x="229.745" y="77.422" width="28.8816" height="29.4143" filterUnits="userSpaceOnUse" color-interpolation-filters="sRGB">
<feFlood flood-opacity="0" result="BackgroundImageFix"/>
<feBlend mode="normal" in="SourceGraphic" in2="BackgroundImageFix" result="shape"/>
<feGaussianBlur stdDeviation="4" result="effect1_foregroundBlur_0_1"/>
</filter>
</defs>
</svg>
